<svg xmlns="http://www.w3.org/2000/svg" viewBox="0 0 2073 512" role="img" aria-label="Phxblockchain">
<title>Phxblockchain — logotipo horizontal</title>
<svg x="0" y="0" width="512" height="512" viewBox="0 0 512 512">
  
  <defs>
    <linearGradient id="fogo" x1="0" y1="0" x2="0" y2="1">
      <stop offset="0" stop-color="#FFC43D"/>
      <stop offset=".45" stop-color="#FF8A1C"/>
      <stop offset=".8" stop-color="#FF4D10"/>
      <stop offset="1" stop-color="#D71A1A"/>
    </linearGradient>
    <linearGradient id="asa" x1="0" y1="0" x2="1" y2="1">
      <stop offset="0" stop-color="#FFC43D"/>
      <stop offset=".5" stop-color="#FF8A1C"/>
      <stop offset="1" stop-color="#FF4D10"/>
    </linearGradient>
    <linearGradient id="corpo" x1="0" y1="0" x2="1" y2="0">
      <stop offset="0" stop-color="#05081a"/>
      <stop offset=".5" stop-color="#1a2440"/>
      <stop offset="1" stop-color="#05081a"/>
    </linearGradient>
    <radialGradient id="brilho" cx=".5" cy=".5" r=".5">
      <stop offset="0" stop-color="#FFC43D" stop-opacity=".9"/>
      <stop offset="1" stop-color="#FF4D10" stop-opacity="0"/>
    </radialGradient>
    <g id="asa-esq">
      <!-- a asa e um crescente: borda externa larga, ponta enrolada para
           dentro no alto, como a chama da folha de marca -->
      <path fill="url(#asa)" d="M214 292 C140 292 78 250 70 176 C66 134 86 92 124 66 C112 92 110 116 116 138 C122 110 138 86 162 70 C150 104 150 136 162 164 C168 136 182 114 202 100 C190 142 196 186 222 226 C232 242 240 254 244 262 Z"/>
      <path fill="#D71A1A" opacity=".55" d="M214 292 C168 290 126 272 102 238 C134 254 168 258 200 252 C176 244 156 230 142 210 C170 222 200 228 230 226 Z"/>
      <path fill="#FFC43D" opacity=".85" d="M116 138 C112 170 124 200 150 222 C132 196 126 168 130 140 C126 122 126 108 132 94 C122 108 116 122 116 138 Z"/>
    </g>
    <g id="trilhas-esq" fill="none" stroke="#FF8A1C" stroke-width="4" stroke-linecap="round">
      <path d="M180 300 H112 L100 288 H70"/>
      <path d="M182 322 H96"/>
      <path d="M186 344 H120 L108 356 H80"/>
      <circle cx="64" cy="288" r="6" fill="#FFC43D" stroke="none"/>
      <circle cx="90" cy="322" r="6" fill="#FFC43D" stroke="none"/>
      <circle cx="74" cy="356" r="6" fill="#FFC43D" stroke="none"/>
    </g>
  </defs>

  <circle cx="256" cy="300" r="150" fill="url(#brilho)" opacity=".35"/>
  <use href="#trilhas-esq"/>
  <use href="#trilhas-esq" transform="translate(512 0) scale(-1 1)"/>
  <use href="#asa-esq"/>
  <use href="#asa-esq" transform="translate(512 0) scale(-1 1)"/>

  <!-- cauda: tres labaredas que descem do cilindro -->
  <path fill="url(#fogo)" d="M256 470 C236 440 222 414 226 384 L286 384 C290 414 276 440 256 470 Z"/>
  <path fill="url(#fogo)" opacity=".85" d="M216 452 C200 428 196 404 206 380 L236 384 C230 410 228 432 216 452 Z"/>
  <path fill="url(#fogo)" opacity=".85" d="M296 452 C312 428 316 404 306 380 L276 384 C282 410 284 432 296 452 Z"/>

  <!-- o cilindro: o banco de dados no peito da fenix -->
  <path fill="url(#corpo)" stroke="#FF8A1C" stroke-width="5" d="M186 250 V372 C186 388 218 400 256 400 C294 400 326 388 326 372 V250"/>
  <ellipse cx="256" cy="250" rx="70" ry="20" fill="#0a1122" stroke="#FFC43D" stroke-width="5"/>
  <g fill="none" stroke="#FF8A1C" stroke-width="4">
    <path d="M186 290 C186 306 218 318 256 318 C294 318 326 306 326 290"/>
    <path d="M186 331 C186 347 218 359 256 359 C294 359 326 347 326 331"/>
  </g>
  <g fill="#FFC43D">
    <circle cx="208" cy="305" r="4.5"/><circle cx="222" cy="309" r="4.5"/>
    <circle cx="208" cy="346" r="4.5"/><circle cx="222" cy="350" r="4.5"/>
    <circle cx="208" cy="382" r="4.5"/><circle cx="222" cy="386" r="4.5"/>
  </g>
  <path fill="#FFC43D" d="M256 238 l4 8 8 4 -8 4 -4 8 -4 -8 -8 -4 8 -4 z"/>

  <!-- a fenix: pescoco em S, cabeca com bico voltado para a direita e a
       crista em tres penas -- sobe do cilindro -->
  <path fill="url(#fogo)" d="M234 240 C222 206 228 172 250 148 C262 134 278 124 296 122 C310 121 322 126 330 134 L352 142 L330 150 C320 152 310 150 302 146 C290 150 282 160 278 174 C272 196 276 218 288 240 Z"/>
  <path fill="#FFC43D" d="M300 124 C288 108 282 90 284 70 C292 88 302 98 314 104 C308 88 308 72 314 56 C320 76 330 90 344 98 C342 84 346 72 354 62 C356 84 352 104 340 120 C332 122 318 122 300 124 Z"/>
  <path fill="#FF8A1C" d="M330 134 L352 142 L330 150 C334 144 334 140 330 134 Z"/>
  <circle cx="314" cy="134" r="4" fill="#010418"/>
</svg>
<line x1="536" y1="120" x2="536" y2="400" stroke="#DDE2EB" stroke-opacity=".25" stroke-width="3"/>
<g transform="translate(560 170)">
<path fill="#DDE2EB" d="M71.69 -2.01Q91.43 -2.01 102.82 2.20Q114.21 6.43 119.09 16.82Q123.97 27.21 123.97 46.13Q123.97 64.98 119.26 75.42Q114.55 85.86 103.85 90.00Q93.14 94.15 75.12 94.15Q65.48 94.15 56.39 93.50Q47.30 92.84 39.62 91.77Q31.94 90.69 26.52 89.48Q21.09 88.26 18.95 87.29L19.60 72.79Q31.87 72.79 45.08 72.79Q58.29 72.79 71.22 72.79Q80.83 72.64 86.40 70.45Q91.96 68.26 94.27 62.45Q96.58 56.64 96.58 46.13Q96.58 35.40 94.27 29.63Q91.96 23.86 86.40 21.60Q80.83 19.34 71.22 19.34Q52.13 19.34 38.41 19.55Q24.69 19.77 19.81 20.27L16.71 0.0Q25.47 -0.93 33.12 -1.36Q40.76 -1.80 49.81 -1.91Q58.85 -2.01 71.69 -2.01ZM43.95 0.0V150.0H16.71V0.0Z"/>
<path fill="#DDE2EB" d="M216.75 40.57Q246.45 40.57 246.45 70.08V150.0H219.96V78.00Q219.96 69.36 217.06 66.09Q214.16 62.82 207.03 62.82Q198.88 62.82 190.45 66.26Q182.02 69.69 170.05 76.69L168.05 61.55Q180.19 51.57 192.52 46.07Q204.85 40.57 216.75 40.57ZM172.82 -2.17 173.04 37.01Q173.04 44.94 172.25 52.03Q171.45 59.12 170.18 64.09L172.82 67.16V150.0H146.49V-2.17Z"/>
<path fill="#D71A1A" d="M374.42 43.31 342.66 95.18 376.97 150.0H349.68L316.74 95.18L347.19 43.31ZM293.79 43.31 324.23 95.18 291.46 150.0H264.01L298.32 95.18L266.56 43.31ZM335.22 85.94V103.55H306.04V85.94Z"/>
<path fill="#DDE2EB" d="M458.24 40.57Q478.75 40.57 488.03 53.42Q497.32 66.26 497.32 96.04Q497.32 108.98 495.03 119.39Q492.75 129.79 487.21 137.23Q481.66 144.68 471.92 148.64Q462.17 152.60 447.03 152.60Q441.47 152.60 434.54 152.14Q427.60 151.67 420.39 150.66Q413.18 149.65 406.54 148.14Q399.91 146.64 394.81 144.56L415.88 128.49Q420.68 129.98 426.04 131.00Q431.39 132.03 436.71 132.35Q442.03 132.68 446.47 132.62Q455.12 132.34 460.27 129.08Q465.43 125.82 467.79 117.90Q470.14 109.97 470.14 96.11Q470.14 83.05 468.28 75.59Q466.42 68.14 461.63 65.01Q456.84 61.88 448.07 61.88Q440.26 61.88 433.56 65.61Q426.87 69.34 418.35 75.56L416.48 61.60Q422.43 55.14 429.09 50.44Q435.75 45.73 443.17 43.15Q450.60 40.57 458.24 40.57ZM421.15 -2.17 421.27 34.68Q421.34 41.74 420.76 48.11Q420.18 54.49 418.44 60.67L420.99 63.59L421.15 145.80L394.81 144.56V-2.17Z"/>
<path fill="#DDE2EB" d="M548.48 -2.17V117.85Q548.48 123.99 551.97 127.07Q555.46 130.16 561.97 130.16H571.37L574.36 148.62Q572.03 149.81 567.75 150.62Q563.47 151.43 558.98 151.85Q554.48 152.27 551.37 152.27Q538.06 152.27 530.21 145.0Q522.36 137.72 522.36 124.30V-2.17Z"/>
<path fill="#DDE2EB" d="M638.99 40.57Q658.38 40.57 670.05 46.04Q681.72 51.51 686.81 63.88Q691.91 76.26 691.91 96.79Q691.91 117.20 686.81 129.51Q681.72 141.83 670.05 147.29Q658.38 152.76 638.99 152.76Q619.75 152.76 608.08 147.29Q596.41 141.83 591.20 129.51Q586.00 117.20 586.00 96.79Q586.00 76.26 591.20 63.88Q596.41 51.51 608.08 46.04Q619.75 40.57 638.99 40.57ZM638.99 60.63Q629.29 60.63 623.76 63.77Q618.23 66.92 615.90 74.74Q613.58 82.55 613.58 96.79Q613.58 110.91 615.90 118.69Q618.23 126.48 623.76 129.59Q629.29 132.71 638.99 132.71Q648.69 132.71 654.29 129.59Q659.90 126.48 662.19 118.69Q664.49 110.91 664.49 96.79Q664.49 82.55 662.19 74.74Q659.90 66.92 654.29 63.77Q648.69 60.63 638.99 60.63Z"/>
<path fill="#DDE2EB" d="M764.63 40.57Q769.98 40.57 776.47 41.07Q782.97 41.57 789.70 42.84Q796.43 44.12 802.03 46.45L799.01 63.12Q790.89 62.66 782.99 62.43Q775.08 62.20 769.05 62.20Q758.08 62.20 751.66 65.17Q745.24 68.15 742.46 75.62Q739.67 83.09 739.67 96.51Q739.67 109.94 742.46 117.51Q745.24 125.09 751.66 128.07Q758.08 131.04 769.05 131.04Q772.44 131.04 777.75 130.86Q783.06 130.67 789.26 130.27Q795.46 129.87 801.27 129.06L803.86 146.10Q795.37 149.56 785.01 151.08Q774.64 152.60 764.35 152.60Q745.21 152.60 733.65 147.14Q722.09 141.67 717.01 129.37Q711.93 117.07 711.93 96.51Q711.93 75.89 717.12 63.62Q722.31 51.35 733.90 45.96Q745.49 40.57 764.63 40.57Z"/>
<path fill="#DDE2EB" d="M921.85 43.31 891.61 81.28Q889.84 83.93 887.16 86.43Q884.48 88.94 882.71 90.15V90.71Q884.48 91.86 887.16 94.89Q889.84 97.93 891.61 100.95L925.52 150.0H895.70L856.70 89.47L892.10 43.31ZM851.74 -2.17 851.89 62.73Q851.89 69.91 851.19 76.52Q850.49 83.13 849.03 89.81Q850.30 96.14 851.02 102.83Q851.74 109.51 851.74 115.35V150.0H825.40V-2.17ZM868.02 81.71V98.71H843.20V81.71Z"/>
<path fill="#DDE2EB" d="M990.28 40.57Q995.63 40.57 1002.13 41.07Q1008.62 41.57 1015.35 42.84Q1022.08 44.12 1027.68 46.45L1024.66 63.12Q1016.54 62.66 1008.64 62.43Q1000.74 62.20 994.71 62.20Q983.73 62.20 977.31 65.17Q970.90 68.15 968.11 75.62Q965.32 83.09 965.32 96.51Q965.32 109.94 968.11 117.51Q970.90 125.09 977.31 128.07Q983.73 131.04 994.71 131.04Q998.09 131.04 1003.40 130.86Q1008.72 130.67 1014.91 130.27Q1021.11 129.87 1026.92 129.06L1029.51 146.10Q1021.03 149.56 1010.66 151.08Q1000.29 152.60 990.00 152.60Q970.86 152.60 959.30 147.14Q947.74 141.67 942.66 129.37Q937.58 117.07 937.58 96.51Q937.58 75.89 942.77 63.62Q947.96 51.35 959.55 45.96Q971.14 40.57 990.28 40.57Z"/>
<path fill="#DDE2EB" d="M1121.31 40.57Q1151.01 40.57 1151.01 70.08V150.0H1124.52V78.00Q1124.52 69.36 1121.63 66.09Q1118.73 62.82 1111.60 62.82Q1103.45 62.82 1095.02 66.26Q1086.59 69.69 1074.62 76.69L1072.62 61.55Q1084.76 51.57 1097.09 46.07Q1109.42 40.57 1121.31 40.57ZM1077.39 -2.17 1077.61 37.01Q1077.61 44.94 1076.81 52.03Q1076.02 59.12 1074.74 64.09L1077.39 67.16V150.0H1051.06V-2.17Z"/>
<path fill="#DDE2EB" d="M1233.74 40.57Q1246.55 40.57 1255.39 43.98Q1264.23 47.38 1268.77 55.43Q1273.31 63.48 1273.31 77.50V150.0H1252.46L1248.63 126.89L1246.82 123.93V77.44Q1246.76 68.85 1242.81 65.08Q1238.85 61.32 1227.82 61.32Q1219.49 61.32 1207.06 62.00Q1194.62 62.68 1181.94 63.64L1179.51 45.55Q1187.15 44.18 1196.71 43.06Q1206.27 41.94 1216.03 41.26Q1225.79 40.57 1233.74 40.57ZM1262.04 84.34 1261.82 100.58 1212.80 100.73Q1206.20 100.88 1203.44 104.12Q1200.68 107.36 1200.68 113.03V118.83Q1200.68 125.52 1204.12 128.79Q1207.56 132.06 1215.06 132.06Q1220.90 132.06 1228.02 129.71Q1235.14 127.37 1242.21 122.84Q1249.29 118.31 1254.99 111.86V125.62Q1252.85 128.85 1248.74 133.34Q1244.63 137.83 1238.62 142.17Q1232.61 146.51 1224.93 149.39Q1217.24 152.27 1207.79 152.27Q1198.25 152.27 1190.67 148.86Q1183.09 145.46 1178.75 138.77Q1174.41 132.08 1174.41 122.32V110.99Q1174.41 98.41 1182.70 91.37Q1190.98 84.34 1205.65 84.34Z"/>
<path fill="#DDE2EB" d="M1328.91 43.31V150.0H1302.80V43.31ZM1321.74 -3.06Q1329.59 -3.06 1329.59 4.84V16.85Q1329.59 24.77 1321.74 24.77H1309.97Q1302.11 24.77 1302.11 16.85V4.84Q1302.11 -3.06 1309.97 -3.06Z"/>
<path fill="#DDE2EB" d="M1429.57 40.57Q1459.27 40.57 1459.27 70.08V150.0H1432.94V78.00Q1432.94 69.36 1429.96 66.09Q1426.99 62.82 1419.86 62.82Q1411.71 62.82 1403.28 66.41Q1394.85 70.00 1382.88 76.69L1381.63 60.79Q1393.58 51.04 1405.69 45.81Q1417.80 40.57 1429.57 40.57ZM1380.81 43.31 1383.53 64.09 1385.65 67.16V150.0H1359.32V43.31Z"/>
</g>
<defs><linearGradient id="luz" x1="0" x2="1"><stop offset="0" stop-color="#D71A1A" stop-opacity="0"/><stop offset=".5" stop-color="#D71A1A"/><stop offset="1" stop-color="#D71A1A" stop-opacity="0"/></linearGradient></defs>
<rect x="560" y="376" width="1473" height="4" fill="url(#luz)"/>
<g transform="translate(560 404) scale(1.0000)" opacity=".75">
<path fill="#DDE2EB" d="M10.27 -0.25Q13.08 -0.25 14.74 0.23Q16.40 0.73 17.14 1.97Q17.88 3.22 17.88 5.48Q17.88 7.84 16.99 9.08Q16.10 10.32 14.07 10.51V10.65Q16.58 10.88 17.57 12.37Q18.57 13.86 18.57 16.51Q18.57 18.77 17.83 20.02Q17.08 21.26 15.48 21.76Q13.87 22.25 11.28 22.25Q9.26 22.25 7.77 22.23Q6.29 22.22 5.04 22.15Q3.78 22.09 2.45 22.0L2.91 19.10Q3.65 19.13 5.73 19.16Q7.82 19.20 10.60 19.20Q12.12 19.20 12.99 18.92Q13.85 18.65 14.20 17.91Q14.56 17.16 14.56 15.77Q14.56 14.25 14.19 13.43Q13.81 12.62 12.92 12.29Q12.03 11.96 10.46 11.94H2.88V9.25H10.41Q11.78 9.23 12.57 8.97Q13.36 8.71 13.70 7.99Q14.05 7.28 14.05 5.99Q14.05 4.68 13.68 3.99Q13.32 3.30 12.45 3.04Q11.59 2.79 10.08 2.79Q8.39 2.79 7.07 2.79Q5.75 2.79 4.73 2.80Q3.71 2.82 2.91 2.89L2.45 0.0Q3.65 -0.12 4.76 -0.17Q5.88 -0.22 7.19 -0.23Q8.51 -0.25 10.27 -0.25ZM6.35 0.0V22.0H2.45V0.0Z"/>
<path fill="#DDE2EB" d="M39.45 0.0V13.38Q39.45 16.66 38.64 18.65Q37.83 20.64 36.02 21.53Q34.20 22.42 31.14 22.42Q27.95 22.42 26.04 21.53Q24.13 20.64 23.29 18.65Q22.44 16.66 22.44 13.38V0.0H26.43V13.38Q26.43 15.57 26.85 16.83Q27.27 18.09 28.27 18.62Q29.26 19.14 30.95 19.14Q32.63 19.14 33.61 18.62Q34.59 18.09 35.02 16.83Q35.45 15.57 35.45 13.38V0.0Z"/>
<path fill="#DDE2EB" d="M48.17 0.0V22.0H44.19V0.0Z"/>
<path fill="#DDE2EB" d="M56.99 0.0V16.90Q56.99 17.82 57.47 18.28Q57.95 18.73 58.89 18.73H66.67L66.86 21.77Q64.67 21.97 62.34 22.01Q60.00 22.05 57.70 22.05Q55.29 22.05 54.15 20.81Q53.01 19.58 53.01 17.66V0.0Z"/>
<path fill="#DDE2EB" d="M78.84 0.0V22.0H74.85V0.0ZM85.67 0.0V3.26H68.03V0.0Z"/>
<path fill="#DDE2EB" d=""/>
<path fill="#DDE2EB" d="M104.73 0.0V22.0H100.73V0.0ZM111.56 0.0V3.26H93.92V0.0Z"/>
<path fill="#DDE2EB" d="M123.02 -0.42Q125.54 -0.42 127.30 0.13Q129.05 0.69 130.12 2.00Q131.18 3.31 131.67 5.51Q132.15 7.72 132.15 11.0Q132.15 14.26 131.67 16.47Q131.18 18.68 130.12 19.99Q129.05 21.30 127.30 21.86Q125.54 22.42 123.02 22.42Q120.51 22.42 118.75 21.86Q116.99 21.30 115.92 19.99Q114.84 18.68 114.36 16.47Q113.87 14.26 113.87 11.0Q113.87 7.72 114.36 5.51Q114.84 3.31 115.92 2.00Q116.99 0.69 118.75 0.13Q120.51 -0.42 123.02 -0.42ZM123.02 2.85Q121.14 2.85 120.06 3.58Q118.98 4.32 118.53 6.09Q118.08 7.85 118.08 11.0Q118.08 14.11 118.53 15.89Q118.98 17.67 120.06 18.41Q121.14 19.14 123.02 19.14Q124.90 19.14 125.98 18.41Q127.06 17.67 127.51 15.89Q127.96 14.11 127.96 11.0Q127.96 7.85 127.51 6.09Q127.06 4.32 125.98 3.58Q124.90 2.85 123.02 2.85Z"/>
<path fill="#DDE2EB" d=""/>
<path fill="#DDE2EB" d="M150.05 -0.40Q151.65 -0.37 153.45 -0.22Q155.26 -0.07 157.01 0.37L156.75 3.10Q155.36 3.05 153.57 3.01Q151.78 2.97 150.09 2.97Q149.08 2.97 148.36 3.04Q147.64 3.10 147.19 3.34Q146.74 3.59 146.55 4.12Q146.35 4.65 146.35 5.59Q146.35 7.01 146.93 7.61Q147.51 8.21 148.87 8.58L153.20 9.86Q155.81 10.63 156.79 12.15Q157.78 13.68 157.78 16.19Q157.78 18.08 157.34 19.30Q156.91 20.51 155.97 21.18Q155.04 21.84 153.55 22.12Q152.05 22.40 149.94 22.40Q148.85 22.40 146.96 22.28Q145.07 22.16 142.63 21.65L142.89 18.78Q144.78 18.83 146.06 18.88Q147.33 18.93 148.26 18.93Q149.18 18.94 149.98 18.94Q151.44 18.94 152.27 18.74Q153.09 18.54 153.43 17.94Q153.76 17.35 153.76 16.20Q153.76 15.20 153.52 14.64Q153.28 14.08 152.75 13.77Q152.21 13.45 151.36 13.23L146.85 11.86Q144.38 11.08 143.36 9.58Q142.35 8.08 142.35 5.59Q142.35 3.69 142.80 2.50Q143.25 1.31 144.18 0.68Q145.10 0.05 146.56 -0.17Q148.01 -0.40 150.05 -0.40Z"/>
<path fill="#DDE2EB" d="M170.60 0.0V22.0H166.61V0.0ZM177.44 0.0V3.26H159.80V0.0Z"/>
<path fill="#DDE2EB" d="M188.89 -0.42Q191.41 -0.42 193.17 0.13Q194.93 0.69 195.99 2.00Q197.05 3.31 197.54 5.51Q198.03 7.72 198.03 11.0Q198.03 14.26 197.54 16.47Q197.05 18.68 195.99 19.99Q194.93 21.30 193.17 21.86Q191.41 22.42 188.89 22.42Q186.38 22.42 184.62 21.86Q182.87 21.30 181.79 19.99Q180.72 18.68 180.23 16.47Q179.75 14.26 179.75 11.0Q179.75 7.72 180.23 5.51Q180.72 3.31 181.79 2.00Q182.87 0.69 184.62 0.13Q186.38 -0.42 188.89 -0.42ZM188.89 2.85Q187.01 2.85 185.93 3.58Q184.85 4.32 184.40 6.09Q183.95 7.85 183.95 11.0Q183.95 14.11 184.40 15.89Q184.85 17.67 185.93 18.41Q187.01 19.14 188.89 19.14Q190.77 19.14 191.85 18.41Q192.93 17.67 193.38 15.89Q193.83 14.11 193.83 11.0Q193.83 7.85 193.38 6.09Q192.93 4.32 191.85 3.58Q190.77 2.85 188.89 2.85Z"/>
<path fill="#DDE2EB" d="M210.26 -0.29Q213.02 -0.29 214.72 0.27Q216.42 0.84 217.21 2.24Q218.00 3.63 218.00 6.15Q218.00 7.79 217.59 8.97Q217.18 10.15 216.28 10.82Q215.37 11.50 213.83 11.69V11.86Q214.39 11.97 214.98 12.34Q215.56 12.71 216.07 13.38Q216.57 14.06 216.80 15.10L218.82 22.0H214.59L212.80 15.21Q212.45 14.06 211.83 13.60Q211.22 13.14 210.17 13.14Q208.09 13.13 206.63 13.12Q205.18 13.11 204.19 13.08Q203.21 13.05 202.50 13.03L202.59 10.01H210.17Q211.61 9.99 212.44 9.68Q213.26 9.38 213.62 8.59Q213.97 7.80 213.97 6.39Q213.97 4.96 213.62 4.20Q213.26 3.44 212.44 3.14Q211.61 2.83 210.17 2.83Q207.35 2.83 205.35 2.86Q203.35 2.90 202.63 2.92L202.17 0.0Q203.45 -0.13 204.57 -0.20Q205.70 -0.26 207.04 -0.28Q208.38 -0.29 210.26 -0.29ZM206.10 0.0V22.0H202.17V0.0Z"/>
<path fill="#DDE2EB" d="M226.74 -0.05Q228.43 -0.05 230.16 -0.05Q231.89 -0.05 233.57 0.00Q235.26 0.06 236.76 0.19L236.58 3.17H227.97Q227.09 3.17 226.66 3.61Q226.23 4.05 226.23 4.99V17.00Q226.23 17.94 226.66 18.39Q227.09 18.85 227.97 18.85H236.58L236.76 21.80Q235.26 21.92 233.57 21.97Q231.89 22.02 230.16 22.04Q228.43 22.05 226.74 22.05Q224.70 22.05 223.48 20.92Q222.26 19.78 222.23 17.89V4.10Q222.26 2.19 223.48 1.06Q224.70 -0.05 226.74 -0.05ZM222.81 9.01H235.36V11.95H222.81Z"/>
<path fill="#DDE2EB" d="M242.45 17.62Q243.23 17.62 243.53 17.92Q243.84 18.22 243.84 19.00V20.61Q243.84 21.39 243.53 21.69Q243.23 22.0 242.45 22.0H241.38Q240.62 22.0 240.30 21.69Q239.99 21.39 239.99 20.61V19.00Q239.99 18.22 240.30 17.92Q240.62 17.62 241.38 17.62Z"/>
<path fill="#DDE2EB" d=""/>
<path fill="#DDE2EB" d="M259.49 -0.05Q261.17 -0.05 262.90 -0.05Q264.63 -0.05 266.32 0.00Q268.00 0.06 269.50 0.19L269.32 3.17H260.71Q259.83 3.17 259.40 3.61Q258.97 4.05 258.97 4.99V17.00Q258.97 17.94 259.40 18.39Q259.83 18.85 260.71 18.85H269.32L269.50 21.80Q268.00 21.92 266.32 21.97Q264.63 22.02 262.90 22.04Q261.17 22.05 259.49 22.05Q257.45 22.05 256.22 20.92Q255.00 19.78 254.98 17.89V4.10Q255.00 2.19 256.22 1.06Q257.45 -0.05 259.49 -0.05ZM255.55 9.01H268.10V11.95H255.55Z"/>
<path fill="#DDE2EB" d="M291.22 0.0V20.51Q291.22 22.0 289.76 22.0H287.05Q286.39 22.0 286.04 21.69Q285.68 21.38 285.39 20.78L278.72 7.51Q278.39 6.82 278.01 5.97Q277.63 5.12 277.42 4.36H276.99Q277.08 5.15 277.13 5.97Q277.17 6.79 277.17 7.58V22.0H273.33V1.48Q273.33 0.0 274.82 0.0H277.46Q278.12 0.0 278.47 0.30Q278.82 0.61 279.12 1.21L285.57 14.11Q285.95 14.81 286.36 15.69Q286.77 16.57 287.13 17.46H287.58Q287.52 16.55 287.47 15.68Q287.43 14.80 287.43 13.93L287.42 0.0Z"/>
<path fill="#DDE2EB" d="M304.90 -0.42Q306.20 -0.42 307.33 -0.35Q308.46 -0.27 309.49 -0.12Q310.52 0.03 311.51 0.31L311.16 3.25Q310.11 3.17 309.08 3.13Q308.04 3.08 307.05 3.06Q306.05 3.05 305.03 3.05Q303.49 3.05 302.44 3.36Q301.39 3.66 300.77 4.52Q300.15 5.38 299.87 6.97Q299.59 8.56 299.59 11.09Q299.59 14.04 299.98 15.76Q300.37 17.48 301.29 18.22Q302.22 18.97 303.78 18.97Q304.84 18.97 305.73 18.71Q306.61 18.44 307.37 18.02Q308.13 17.59 308.81 17.14L309.27 19.21Q308.75 19.87 307.79 20.62Q306.82 21.37 305.48 21.89Q304.14 22.42 302.43 22.42Q299.96 22.42 298.39 21.22Q296.82 20.02 296.10 17.49Q295.38 14.96 295.38 10.95Q295.38 6.62 296.29 4.14Q297.21 1.66 299.31 0.61Q301.40 -0.42 304.90 -0.42ZM312.19 9.29V22.0H309.26L308.69 18.70L308.32 17.90V9.29Z"/>
<path fill="#DDE2EB" d="M320.52 0.0V22.0H316.55V0.0Z"/>
<path fill="#DDE2EB" d="M343.32 0.0V20.51Q343.32 22.0 341.86 22.0H339.14Q338.49 22.0 338.14 21.69Q337.78 21.38 337.49 20.78L330.82 7.51Q330.49 6.82 330.11 5.97Q329.73 5.12 329.51 4.36H329.09Q329.18 5.15 329.22 5.97Q329.27 6.79 329.27 7.58V22.0H325.43V1.48Q325.43 0.0 326.92 0.0H329.56Q330.22 0.0 330.57 0.30Q330.92 0.61 331.22 1.21L337.67 14.11Q338.05 14.81 338.46 15.69Q338.86 16.57 339.22 17.46H339.67Q339.62 16.55 339.57 15.68Q339.52 14.80 339.52 13.93L339.51 0.0Z"/>
<path fill="#DDE2EB" d="M352.55 -0.05Q354.24 -0.05 355.97 -0.05Q357.70 -0.05 359.39 0.00Q361.07 0.06 362.57 0.19L362.39 3.17H353.78Q352.90 3.17 352.47 3.61Q352.04 4.05 352.04 4.99V17.00Q352.04 17.94 352.47 18.39Q352.90 18.85 353.78 18.85H362.39L362.57 21.80Q361.07 21.92 359.39 21.97Q357.70 22.02 355.97 22.04Q354.24 22.05 352.55 22.05Q350.52 22.05 349.29 20.92Q348.07 19.78 348.05 17.89V4.10Q348.07 2.19 349.29 1.06Q350.52 -0.05 352.55 -0.05ZM348.62 9.01H361.17V11.95H348.62Z"/>
<path fill="#DDE2EB" d="M370.73 -0.05Q372.41 -0.05 374.14 -0.05Q375.87 -0.05 377.56 0.00Q379.24 0.06 380.75 0.19L380.56 3.17H371.95Q371.08 3.17 370.65 3.61Q370.22 4.05 370.22 4.99V17.00Q370.22 17.94 370.65 18.39Q371.08 18.85 371.95 18.85H380.56L380.75 21.80Q379.24 21.92 377.56 21.97Q375.87 22.02 374.14 22.04Q372.41 22.05 370.73 22.05Q368.69 22.05 367.47 20.92Q366.24 19.78 366.22 17.89V4.10Q366.24 2.19 367.47 1.06Q368.69 -0.05 370.73 -0.05ZM366.79 9.01H379.35V11.95H366.79Z"/>
<path fill="#DDE2EB" d="M392.67 -0.29Q395.43 -0.29 397.13 0.27Q398.83 0.84 399.62 2.24Q400.41 3.63 400.41 6.15Q400.41 7.79 400.00 8.97Q399.59 10.15 398.68 10.82Q397.78 11.50 396.24 11.69V11.86Q396.80 11.97 397.39 12.34Q397.97 12.71 398.47 13.38Q398.98 14.06 399.21 15.10L401.22 22.0H397.00L395.20 15.21Q394.85 14.06 394.24 13.60Q393.63 13.14 392.57 13.14Q390.50 13.13 389.04 13.12Q387.59 13.11 386.60 13.08Q385.62 13.05 384.90 13.03L385.00 10.01H392.58Q394.02 9.99 394.85 9.68Q395.67 9.38 396.03 8.59Q396.38 7.80 396.38 6.39Q396.38 4.96 396.03 4.20Q395.67 3.44 394.85 3.14Q394.02 2.83 392.58 2.83Q389.76 2.83 387.76 2.86Q385.76 2.90 385.04 2.92L384.58 0.0Q385.86 -0.13 386.98 -0.20Q388.10 -0.26 389.45 -0.28Q390.79 -0.29 392.67 -0.29ZM388.51 0.0V22.0H384.58V0.0Z"/>
<path fill="#DDE2EB" d="M409.15 -0.05Q410.84 -0.05 412.57 -0.05Q414.30 -0.05 415.98 0.00Q417.66 0.06 419.17 0.19L418.98 3.17H410.37Q409.50 3.17 409.07 3.61Q408.64 4.05 408.64 4.99V17.00Q408.64 17.94 409.07 18.39Q409.50 18.85 410.37 18.85H418.98L419.17 21.80Q417.66 21.92 415.98 21.97Q414.30 22.02 412.57 22.04Q410.84 22.05 409.15 22.05Q407.11 22.05 405.89 20.92Q404.66 19.78 404.64 17.89V4.10Q404.66 2.19 405.89 1.06Q407.11 -0.05 409.15 -0.05ZM405.21 9.01H417.77V11.95H405.21Z"/>
<path fill="#DDE2EB" d="M431.29 -0.29Q433.79 -0.29 435.52 0.26Q437.26 0.82 438.32 2.11Q439.39 3.41 439.87 5.58Q440.36 7.76 440.36 11.0Q440.36 14.23 439.87 16.41Q439.39 18.58 438.32 19.88Q437.26 21.17 435.52 21.73Q433.79 22.29 431.29 22.29Q428.89 22.29 426.86 22.21Q424.82 22.12 423.00 22.0L424.67 18.94Q425.94 19.00 427.60 19.05Q429.27 19.10 431.29 19.10Q433.13 19.10 434.20 18.37Q435.27 17.65 435.71 15.88Q436.16 14.11 436.16 11.0Q436.16 7.88 435.71 6.11Q435.27 4.34 434.20 3.61Q433.13 2.87 431.29 2.87Q429.32 2.87 427.77 2.89Q426.22 2.91 424.75 2.93L423.00 0.0Q424.83 -0.12 426.85 -0.21Q428.87 -0.29 431.29 -0.29ZM426.99 0.0V22.0H423.00V0.0Z"/>
<path fill="#DDE2EB" d=""/>
<path fill="#DDE2EB" d="M460.49 0.0V22.0H456.50V0.0ZM467.33 0.0V3.26H449.69V0.0Z"/>
<path fill="#DDE2EB" d="M478.78 -0.42Q481.30 -0.42 483.06 0.13Q484.82 0.69 485.88 2.00Q486.94 3.31 487.43 5.51Q487.91 7.72 487.91 11.0Q487.91 14.26 487.43 16.47Q486.94 18.68 485.88 19.99Q484.82 21.30 483.06 21.86Q481.30 22.42 478.78 22.42Q476.27 22.42 474.51 21.86Q472.76 21.30 471.68 19.99Q470.61 18.68 470.12 16.47Q469.63 14.26 469.63 11.0Q469.63 7.72 470.12 5.51Q470.61 3.31 471.68 2.00Q472.76 0.69 474.51 0.13Q476.27 -0.42 478.78 -0.42ZM478.78 2.85Q476.90 2.85 475.82 3.58Q474.74 4.32 474.29 6.09Q473.84 7.85 473.84 11.0Q473.84 14.11 474.29 15.89Q474.74 17.67 475.82 18.41Q476.90 19.14 478.78 19.14Q480.66 19.14 481.74 18.41Q482.82 17.67 483.27 15.89Q483.72 14.11 483.72 11.0Q483.72 7.85 483.27 6.09Q482.82 4.32 481.74 3.58Q480.66 2.85 478.78 2.85Z"/>
<path fill="#DDE2EB" d=""/>
<path fill="#DDE2EB" d="M505.81 -0.40Q507.42 -0.37 509.22 -0.22Q511.02 -0.07 512.77 0.37L512.51 3.10Q511.12 3.05 509.33 3.01Q507.54 2.97 505.85 2.97Q504.84 2.97 504.12 3.04Q503.41 3.10 502.96 3.34Q502.51 3.59 502.31 4.12Q502.11 4.65 502.11 5.59Q502.11 7.01 502.69 7.61Q503.27 8.21 504.64 8.58L508.96 9.86Q511.57 10.63 512.55 12.15Q513.54 13.68 513.54 16.19Q513.54 18.08 513.11 19.30Q512.67 20.51 511.74 21.18Q510.80 21.84 509.31 22.12Q507.81 22.40 505.71 22.40Q504.61 22.40 502.72 22.28Q500.83 22.16 498.39 21.65L498.65 18.78Q500.54 18.83 501.82 18.88Q503.09 18.93 504.02 18.93Q504.95 18.94 505.75 18.94Q507.21 18.94 508.03 18.74Q508.86 18.54 509.19 17.94Q509.52 17.35 509.52 16.20Q509.52 15.20 509.28 14.64Q509.04 14.08 508.51 13.77Q507.97 13.45 507.12 13.23L502.61 11.86Q500.14 11.08 499.13 9.58Q498.11 8.08 498.11 5.59Q498.11 3.69 498.56 2.50Q499.01 1.31 499.94 0.68Q500.87 0.05 502.32 -0.17Q503.77 -0.40 505.81 -0.40Z"/>
<path fill="#DDE2EB" d="M525.63 -0.38Q527.12 -0.38 528.19 -0.30Q529.25 -0.23 530.14 -0.08Q531.03 0.06 531.98 0.31L531.63 3.29Q530.63 3.21 529.77 3.17Q528.92 3.12 527.95 3.09Q526.98 3.07 525.63 3.07Q523.80 3.07 522.74 3.79Q521.69 4.51 521.25 6.24Q520.81 7.97 520.81 11.0Q520.81 14.02 521.25 15.75Q521.69 17.48 522.74 18.20Q523.80 18.92 525.63 18.92Q527.77 18.92 529.22 18.85Q530.67 18.78 532.09 18.60L532.44 21.55Q530.98 21.99 529.45 22.18Q527.92 22.38 525.63 22.38Q522.33 22.38 520.35 21.28Q518.36 20.18 517.48 17.69Q516.60 15.20 516.60 11.0Q516.60 6.79 517.48 4.30Q518.36 1.81 520.35 0.71Q522.33 -0.38 525.63 -0.38Z"/>
<path fill="#DDE2EB" d="M545.56 0.0Q546.07 0.0 546.46 0.28Q546.85 0.57 546.98 1.06L553.67 22.0H549.57L544.55 5.03Q544.42 4.53 544.29 4.02Q544.16 3.50 544.05 3.03H543.17Q543.06 3.50 542.94 4.02Q542.82 4.53 542.67 5.03L537.66 22.0H533.56L540.24 1.06Q540.37 0.57 540.76 0.28Q541.15 0.0 541.66 0.0ZM549.25 12.60V15.73H537.93V12.60Z"/>
<path fill="#DDE2EB" d="M560.18 0.0V16.90Q560.18 17.82 560.66 18.28Q561.14 18.73 562.09 18.73H569.87L570.05 21.77Q567.87 21.97 565.53 22.01Q563.20 22.05 560.89 22.05Q558.48 22.05 557.34 20.81Q556.21 19.58 556.21 17.66V0.0Z"/>
<path fill="#DDE2EB" d="M577.37 -0.05Q579.06 -0.05 580.79 -0.05Q582.52 -0.05 584.20 0.00Q585.88 0.06 587.39 0.19L587.20 3.17H578.59Q577.72 3.17 577.29 3.61Q576.86 4.05 576.86 4.99V17.00Q576.86 17.94 577.29 18.39Q577.72 18.85 578.59 18.85H587.20L587.39 21.80Q585.88 21.92 584.20 21.97Q582.52 22.02 580.79 22.04Q579.06 22.05 577.37 22.05Q575.33 22.05 574.11 20.92Q572.88 19.78 572.86 17.89V4.10Q572.88 2.19 574.11 1.06Q575.33 -0.05 577.37 -0.05ZM573.44 9.01H585.99V11.95H573.44Z"/>
<path fill="#DDE2EB" d="M593.08 17.62Q593.86 17.62 594.16 17.92Q594.47 18.22 594.47 19.00V20.61Q594.47 21.39 594.16 21.69Q593.86 22.0 593.08 22.0H592.01Q591.25 22.0 590.93 21.69Q590.62 21.39 590.62 20.61V19.00Q590.62 18.22 590.93 17.92Q591.25 17.62 592.01 17.62Z"/>
</g>
</svg>
